<mxfile host="app.diagrams.net" agent="Mozilla/5.0 (Windows NT 10.0; Win64; x64) AppleWebKit/537.36 (KHTML, like Gecko) Chrome/128.0.0.0 YaBrowser/24.10.0.0 Safari/537.36" version="24.8.4">
  <diagram name="Страница — 1" id="u4THosAfe5rygIGWOAMp">
    <mxGraphModel grid="1" page="1" gridSize="10" guides="1" tooltips="1" connect="1" arrows="1" fold="1" pageScale="1" pageWidth="827" pageHeight="1169" math="0" shadow="0">
      <root>
        <mxCell id="0" />
        <mxCell id="1" parent="0" />
        <mxCell id="l1aC1aMXHmDlCZjRQquN-1" value="&lt;font style=&quot;font-size: 14px;&quot;&gt;строка &lt;/font&gt;&lt;font style=&quot;font-size: 14px;&quot;&gt;поиска&lt;/font&gt;" style="html=1;whiteSpace=wrap;fillColor=#d5e8d4;strokeColor=#82b366;" vertex="1" parent="1">
          <mxGeometry x="50" y="100" width="110" height="50" as="geometry" />
        </mxCell>
        <mxCell id="l1aC1aMXHmDlCZjRQquN-2" value="" style="html=1;verticalAlign=bottom;endArrow=block;curved=0;rounded=0;" edge="1" parent="1">
          <mxGeometry width="80" relative="1" as="geometry">
            <mxPoint x="160" y="130" as="sourcePoint" />
            <mxPoint x="240" y="130" as="targetPoint" />
          </mxGeometry>
        </mxCell>
        <mxCell id="l1aC1aMXHmDlCZjRQquN-3" value="поиск по базе данных каталога. items-&amp;gt;name" style="html=1;whiteSpace=wrap;" vertex="1" parent="1">
          <mxGeometry x="235" y="40" width="130" height="50" as="geometry" />
        </mxCell>
        <mxCell id="l1aC1aMXHmDlCZjRQquN-4" value="логотип" style="html=1;whiteSpace=wrap;fillColor=#d5e8d4;strokeColor=#82b366;" vertex="1" parent="1">
          <mxGeometry x="50" y="240" width="110" height="50" as="geometry" />
        </mxCell>
        <mxCell id="l1aC1aMXHmDlCZjRQquN-5" value="" style="html=1;verticalAlign=bottom;endArrow=block;curved=0;rounded=0;" edge="1" parent="1">
          <mxGeometry x="0.5" y="20" width="80" relative="1" as="geometry">
            <mxPoint x="160" y="264.44" as="sourcePoint" />
            <mxPoint x="240" y="264.44" as="targetPoint" />
            <Array as="points">
              <mxPoint x="220" y="264.44" />
            </Array>
            <mxPoint as="offset" />
          </mxGeometry>
        </mxCell>
        <mxCell id="l1aC1aMXHmDlCZjRQquN-6" value="переход на главную страницу" style="html=1;whiteSpace=wrap;fillColor=#fad9d5;strokeColor=#ae4132;" vertex="1" parent="1">
          <mxGeometry x="240" y="240" width="110" height="50" as="geometry" />
        </mxCell>
        <mxCell id="l1aC1aMXHmDlCZjRQquN-7" value="избранное" style="html=1;whiteSpace=wrap;fillColor=#d5e8d4;strokeColor=#82b366;" vertex="1" parent="1">
          <mxGeometry x="50" y="890" width="110" height="50" as="geometry" />
        </mxCell>
        <mxCell id="l1aC1aMXHmDlCZjRQquN-8" value="" style="html=1;verticalAlign=bottom;endArrow=block;curved=0;rounded=0;" edge="1" parent="1" target="HHeidzKz2zjaD0ulcohX-19">
          <mxGeometry width="80" relative="1" as="geometry">
            <mxPoint x="160" y="914.71" as="sourcePoint" />
            <mxPoint x="240" y="914.71" as="targetPoint" />
            <Array as="points">
              <mxPoint x="300" y="915" />
            </Array>
          </mxGeometry>
        </mxCell>
        <mxCell id="l1aC1aMXHmDlCZjRQquN-10" value="личный кабинет" style="html=1;whiteSpace=wrap;fillColor=#d5e8d4;strokeColor=#82b366;" vertex="1" parent="1">
          <mxGeometry x="50" y="410" width="110" height="50" as="geometry" />
        </mxCell>
        <mxCell id="l1aC1aMXHmDlCZjRQquN-11" value="&lt;font style=&quot;font-size: 10px;&quot;&gt;авторизован ли на сайте на данный момент&lt;/font&gt;" style="shape=rhombus;perimeter=rhombusPerimeter;whiteSpace=wrap;html=1;align=center;" vertex="1" parent="1">
          <mxGeometry x="240" y="400" width="120" height="60" as="geometry" />
        </mxCell>
        <mxCell id="l1aC1aMXHmDlCZjRQquN-12" value="" style="html=1;verticalAlign=bottom;endArrow=block;curved=0;rounded=0;" edge="1" parent="1">
          <mxGeometry width="80" relative="1" as="geometry">
            <mxPoint x="160" y="429.72" as="sourcePoint" />
            <mxPoint x="240" y="429.72" as="targetPoint" />
          </mxGeometry>
        </mxCell>
        <mxCell id="l1aC1aMXHmDlCZjRQquN-14" value="ДА" style="html=1;verticalAlign=bottom;endArrow=block;curved=0;rounded=0;" edge="1" parent="1">
          <mxGeometry width="80" relative="1" as="geometry">
            <mxPoint x="300" y="400" as="sourcePoint" />
            <mxPoint x="380" y="400" as="targetPoint" />
          </mxGeometry>
        </mxCell>
        <mxCell id="l1aC1aMXHmDlCZjRQquN-15" value="Переход на страницу лк" style="html=1;whiteSpace=wrap;fillColor=#fad9d5;strokeColor=#ae4132;" vertex="1" parent="1">
          <mxGeometry x="380" y="370" width="110" height="50" as="geometry" />
        </mxCell>
        <mxCell id="l1aC1aMXHmDlCZjRQquN-16" value="НЕТ" style="html=1;verticalAlign=bottom;endArrow=block;curved=0;rounded=0;" edge="1" parent="1">
          <mxGeometry width="80" relative="1" as="geometry">
            <mxPoint x="300" y="459.44" as="sourcePoint" />
            <mxPoint x="380" y="459.44" as="targetPoint" />
          </mxGeometry>
        </mxCell>
        <mxCell id="l1aC1aMXHmDlCZjRQquN-18" value="есть ли аккаунт?" style="shape=rhombus;perimeter=rhombusPerimeter;whiteSpace=wrap;html=1;align=center;" vertex="1" parent="1">
          <mxGeometry x="380" y="430" width="120" height="60" as="geometry" />
        </mxCell>
        <mxCell id="l1aC1aMXHmDlCZjRQquN-19" value="ДА" style="html=1;verticalAlign=bottom;endArrow=block;curved=0;rounded=0;" edge="1" parent="1">
          <mxGeometry width="80" relative="1" as="geometry">
            <mxPoint x="440" y="430" as="sourcePoint" />
            <mxPoint x="520" y="430" as="targetPoint" />
          </mxGeometry>
        </mxCell>
        <mxCell id="l1aC1aMXHmDlCZjRQquN-20" value="НЕТ" style="html=1;verticalAlign=bottom;endArrow=block;curved=0;rounded=0;" edge="1" parent="1">
          <mxGeometry width="80" relative="1" as="geometry">
            <mxPoint x="440" y="490" as="sourcePoint" />
            <mxPoint x="440" y="550" as="targetPoint" />
          </mxGeometry>
        </mxCell>
        <mxCell id="l1aC1aMXHmDlCZjRQquN-21" value="Ввод логина и пароля" style="html=1;whiteSpace=wrap;" vertex="1" parent="1">
          <mxGeometry x="520" y="405" width="110" height="50" as="geometry" />
        </mxCell>
        <mxCell id="l1aC1aMXHmDlCZjRQquN-22" value="" style="html=1;verticalAlign=bottom;endArrow=block;curved=0;rounded=0;" edge="1" parent="1" target="l1aC1aMXHmDlCZjRQquN-23">
          <mxGeometry width="80" relative="1" as="geometry">
            <mxPoint x="630" y="429.44" as="sourcePoint" />
            <mxPoint x="710" y="429.44" as="targetPoint" />
          </mxGeometry>
        </mxCell>
        <mxCell id="l1aC1aMXHmDlCZjRQquN-23" value="найден ли пользователь?" style="shape=rhombus;perimeter=rhombusPerimeter;whiteSpace=wrap;html=1;align=center;" vertex="1" parent="1">
          <mxGeometry x="670" y="400.00000000000006" width="120" height="60" as="geometry" />
        </mxCell>
        <mxCell id="l1aC1aMXHmDlCZjRQquN-25" value="ДА" style="html=1;verticalAlign=bottom;endArrow=block;curved=0;rounded=0;entryX=1.022;entryY=0.406;entryDx=0;entryDy=0;entryPerimeter=0;" edge="1" parent="1" target="l1aC1aMXHmDlCZjRQquN-15">
          <mxGeometry width="80" relative="1" as="geometry">
            <mxPoint x="730" y="390" as="sourcePoint" />
            <mxPoint x="650.0038095238095" y="399.52" as="targetPoint" />
            <Array as="points" />
          </mxGeometry>
        </mxCell>
        <mxCell id="l1aC1aMXHmDlCZjRQquN-27" value="" style="endArrow=none;html=1;rounded=0;" edge="1" parent="1">
          <mxGeometry relative="1" as="geometry">
            <mxPoint x="729.74" y="390" as="sourcePoint" />
            <mxPoint x="730" y="400" as="targetPoint" />
          </mxGeometry>
        </mxCell>
        <mxCell id="l1aC1aMXHmDlCZjRQquN-28" value="НЕТ" style="html=1;verticalAlign=bottom;endArrow=block;curved=0;rounded=0;" edge="1" parent="1">
          <mxGeometry width="80" relative="1" as="geometry">
            <mxPoint x="730" y="460" as="sourcePoint" />
            <mxPoint x="810" y="460" as="targetPoint" />
          </mxGeometry>
        </mxCell>
        <mxCell id="l1aC1aMXHmDlCZjRQquN-29" value="оповещение: пользователь не найден или пароль неверный&amp;nbsp;" style="html=1;whiteSpace=wrap;" vertex="1" parent="1">
          <mxGeometry x="810" y="420" width="130" height="65" as="geometry" />
        </mxCell>
        <mxCell id="l1aC1aMXHmDlCZjRQquN-30" value="" style="html=1;verticalAlign=bottom;endArrow=block;curved=0;rounded=0;entryX=0.25;entryY=1;entryDx=0;entryDy=0;" edge="1" parent="1" target="l1aC1aMXHmDlCZjRQquN-21">
          <mxGeometry width="80" relative="1" as="geometry">
            <mxPoint x="880" y="520" as="sourcePoint" />
            <mxPoint x="550" y="520" as="targetPoint" />
            <Array as="points">
              <mxPoint x="548" y="520" />
            </Array>
          </mxGeometry>
        </mxCell>
        <mxCell id="l1aC1aMXHmDlCZjRQquN-31" value="" style="endArrow=none;html=1;rounded=0;entryX=0.537;entryY=0.994;entryDx=0;entryDy=0;entryPerimeter=0;" edge="1" parent="1" target="l1aC1aMXHmDlCZjRQquN-29">
          <mxGeometry width="50" height="50" relative="1" as="geometry">
            <mxPoint x="880" y="520" as="sourcePoint" />
            <mxPoint x="890" y="450" as="targetPoint" />
          </mxGeometry>
        </mxCell>
        <mxCell id="l1aC1aMXHmDlCZjRQquN-32" value="страница регистрации" style="rounded=0;whiteSpace=wrap;html=1;fillColor=#d5e8d4;strokeColor=#82b366;" vertex="1" parent="1">
          <mxGeometry x="380" y="550" width="120" height="60" as="geometry" />
        </mxCell>
        <mxCell id="l1aC1aMXHmDlCZjRQquN-33" value="" style="html=1;verticalAlign=bottom;endArrow=block;curved=0;rounded=0;" edge="1" parent="1" target="HHeidzKz2zjaD0ulcohX-1">
          <mxGeometry width="80" relative="1" as="geometry">
            <mxPoint x="500" y="584" as="sourcePoint" />
            <mxPoint x="580" y="584" as="targetPoint" />
            <mxPoint as="offset" />
          </mxGeometry>
        </mxCell>
        <mxCell id="HHeidzKz2zjaD0ulcohX-1" value="ввод логина и пароля дважды" style="html=1;whiteSpace=wrap;" vertex="1" parent="1">
          <mxGeometry x="560" y="560" width="110" height="50" as="geometry" />
        </mxCell>
        <mxCell id="HHeidzKz2zjaD0ulcohX-2" value="" style="html=1;verticalAlign=bottom;endArrow=block;curved=0;rounded=0;" edge="1" parent="1">
          <mxGeometry width="80" relative="1" as="geometry">
            <mxPoint x="670" y="584.89" as="sourcePoint" />
            <mxPoint x="750" y="584.89" as="targetPoint" />
          </mxGeometry>
        </mxCell>
        <mxCell id="HHeidzKz2zjaD0ulcohX-3" value="&lt;font style=&quot;font-size: 10px;&quot;&gt;этот логин уже есть в базе?&lt;/font&gt;" style="shape=rhombus;perimeter=rhombusPerimeter;whiteSpace=wrap;html=1;align=center;" vertex="1" parent="1">
          <mxGeometry x="750" y="552.5" width="120" height="65" as="geometry" />
        </mxCell>
        <mxCell id="HHeidzKz2zjaD0ulcohX-4" value="НЕТ" style="html=1;verticalAlign=bottom;endArrow=block;curved=0;rounded=0;" edge="1" parent="1">
          <mxGeometry width="80" relative="1" as="geometry">
            <mxPoint x="810" y="552.5" as="sourcePoint" />
            <mxPoint x="890" y="552.5" as="targetPoint" />
          </mxGeometry>
        </mxCell>
        <mxCell id="HHeidzKz2zjaD0ulcohX-5" value="ДА" style="html=1;verticalAlign=bottom;endArrow=block;curved=0;rounded=0;" edge="1" parent="1">
          <mxGeometry width="80" relative="1" as="geometry">
            <mxPoint x="810" y="617.5" as="sourcePoint" />
            <mxPoint x="890" y="617.5" as="targetPoint" />
          </mxGeometry>
        </mxCell>
        <mxCell id="HHeidzKz2zjaD0ulcohX-6" value="&lt;div&gt;&lt;br&gt;&lt;/div&gt;&lt;div&gt;оповещение:&amp;nbsp;&lt;span style=&quot;white-space-collapse: preserve; background-color: initial;&quot;&gt;Пользователь с таким логином уже зарегестрирован&lt;/span&gt;&lt;/div&gt;&lt;span&gt;&lt;/span&gt;&lt;span style=&quot;white-space-collapse: preserve;&quot;&gt;Попробуйте войти в аккаунт или выберите другой логин&lt;/span&gt;" style="html=1;whiteSpace=wrap;" vertex="1" parent="1">
          <mxGeometry x="890" y="585" width="210" height="80" as="geometry" />
        </mxCell>
        <mxCell id="HHeidzKz2zjaD0ulcohX-8" value="добавление пользователя в базу данных" style="html=1;whiteSpace=wrap;" vertex="1" parent="1">
          <mxGeometry x="890" y="520" width="110" height="50" as="geometry" />
        </mxCell>
        <mxCell id="HHeidzKz2zjaD0ulcohX-9" value="" style="html=1;verticalAlign=bottom;endArrow=block;curved=0;rounded=0;entryX=0.5;entryY=1;entryDx=0;entryDy=0;" edge="1" parent="1" target="HHeidzKz2zjaD0ulcohX-1">
          <mxGeometry width="80" relative="1" as="geometry">
            <mxPoint x="1000" y="720" as="sourcePoint" />
            <mxPoint x="590" y="710" as="targetPoint" />
            <Array as="points">
              <mxPoint x="615" y="720" />
            </Array>
          </mxGeometry>
        </mxCell>
        <mxCell id="HHeidzKz2zjaD0ulcohX-10" value="" style="endArrow=none;html=1;rounded=0;entryX=0.521;entryY=0.988;entryDx=0;entryDy=0;entryPerimeter=0;" edge="1" parent="1" target="HHeidzKz2zjaD0ulcohX-6">
          <mxGeometry width="50" height="50" relative="1" as="geometry">
            <mxPoint x="1000" y="720" as="sourcePoint" />
            <mxPoint x="880" y="620" as="targetPoint" />
          </mxGeometry>
        </mxCell>
        <mxCell id="HHeidzKz2zjaD0ulcohX-12" value="" style="endArrow=open;endSize=12;dashed=1;html=1;rounded=0;" edge="1" parent="1">
          <mxGeometry width="160" relative="1" as="geometry">
            <mxPoint x="940" y="452.21" as="sourcePoint" />
            <mxPoint x="1100" y="452.21" as="targetPoint" />
          </mxGeometry>
        </mxCell>
        <mxCell id="HHeidzKz2zjaD0ulcohX-13" value="Забыли пароль?" style="html=1;whiteSpace=wrap;" vertex="1" parent="1">
          <mxGeometry x="1100" y="427.5" width="110" height="50" as="geometry" />
        </mxCell>
        <mxCell id="HHeidzKz2zjaD0ulcohX-14" value="" style="html=1;verticalAlign=bottom;endArrow=block;curved=0;rounded=0;" edge="1" parent="1">
          <mxGeometry width="80" relative="1" as="geometry">
            <mxPoint x="1210" y="452.21" as="sourcePoint" />
            <mxPoint x="1290" y="452.21" as="targetPoint" />
          </mxGeometry>
        </mxCell>
        <mxCell id="HHeidzKz2zjaD0ulcohX-15" value="написать нам&amp;nbsp;" style="html=1;whiteSpace=wrap;" vertex="1" parent="1">
          <mxGeometry x="1290" y="430" width="110" height="50" as="geometry" />
        </mxCell>
        <mxCell id="HHeidzKz2zjaD0ulcohX-16" value="" style="html=1;verticalAlign=bottom;endArrow=block;curved=0;rounded=0;entryX=1.002;entryY=0.053;entryDx=0;entryDy=0;entryPerimeter=0;" edge="1" parent="1" target="l1aC1aMXHmDlCZjRQquN-15">
          <mxGeometry width="80" relative="1" as="geometry">
            <mxPoint x="1000" y="550" as="sourcePoint" />
            <mxPoint x="1040" y="310" as="targetPoint" />
            <Array as="points">
              <mxPoint x="1040" y="550" />
              <mxPoint x="1040" y="370" />
            </Array>
          </mxGeometry>
        </mxCell>
        <mxCell id="HHeidzKz2zjaD0ulcohX-17" value="Корзина" style="html=1;whiteSpace=wrap;fillColor=#d5e8d4;strokeColor=#82b366;" vertex="1" parent="1">
          <mxGeometry x="50" y="780" width="110" height="50" as="geometry" />
        </mxCell>
        <mxCell id="HHeidzKz2zjaD0ulcohX-18" value="" style="html=1;verticalAlign=bottom;endArrow=block;curved=0;rounded=0;" edge="1" parent="1">
          <mxGeometry width="80" relative="1" as="geometry">
            <mxPoint x="160" y="804.74" as="sourcePoint" />
            <mxPoint x="240" y="804.74" as="targetPoint" />
          </mxGeometry>
        </mxCell>
        <mxCell id="HHeidzKz2zjaD0ulcohX-19" value="авторизован ли пользователь?" style="shape=rhombus;perimeter=rhombusPerimeter;whiteSpace=wrap;html=1;align=center;" vertex="1" parent="1">
          <mxGeometry x="240" y="775" width="120" height="60" as="geometry" />
        </mxCell>
        <mxCell id="HHeidzKz2zjaD0ulcohX-20" value="НЕТ" style="html=1;verticalAlign=bottom;endArrow=block;curved=0;rounded=0;entryX=0.5;entryY=1;entryDx=0;entryDy=0;exitX=0.5;exitY=0;exitDx=0;exitDy=0;" edge="1" parent="1" source="HHeidzKz2zjaD0ulcohX-19" target="l1aC1aMXHmDlCZjRQquN-10">
          <mxGeometry width="80" relative="1" as="geometry">
            <mxPoint x="300" y="730" as="sourcePoint" />
            <mxPoint x="90" y="730" as="targetPoint" />
            <Array as="points">
              <mxPoint x="300" y="730" />
              <mxPoint x="105" y="730" />
            </Array>
          </mxGeometry>
        </mxCell>
        <mxCell id="HHeidzKz2zjaD0ulcohX-21" value="ДА" style="html=1;verticalAlign=bottom;endArrow=block;curved=0;rounded=0;entryX=-0.02;entryY=0.644;entryDx=0;entryDy=0;entryPerimeter=0;" edge="1" parent="1" target="HHeidzKz2zjaD0ulcohX-22">
          <mxGeometry width="80" relative="1" as="geometry">
            <mxPoint x="360" y="804.78" as="sourcePoint" />
            <mxPoint x="440" y="804.78" as="targetPoint" />
          </mxGeometry>
        </mxCell>
        <mxCell id="HHeidzKz2zjaD0ulcohX-22" value="страница корзины" style="html=1;whiteSpace=wrap;fillColor=#fad9d5;strokeColor=#ae4132;" vertex="1" parent="1">
          <mxGeometry x="440" y="730" width="110" height="50" as="geometry" />
        </mxCell>
        <mxCell id="HHeidzKz2zjaD0ulcohX-23" value="ДА" style="html=1;verticalAlign=bottom;endArrow=block;curved=0;rounded=0;exitX=1;exitY=0.5;exitDx=0;exitDy=0;" edge="1" parent="1" source="HHeidzKz2zjaD0ulcohX-19">
          <mxGeometry width="80" relative="1" as="geometry">
            <mxPoint x="420" y="920" as="sourcePoint" />
            <mxPoint x="440" y="850" as="targetPoint" />
          </mxGeometry>
        </mxCell>
        <mxCell id="HHeidzKz2zjaD0ulcohX-24" value="страница избранного" style="html=1;whiteSpace=wrap;fillColor=#fad9d5;strokeColor=#ae4132;" vertex="1" parent="1">
          <mxGeometry x="440" y="840" width="110" height="50" as="geometry" />
        </mxCell>
        <mxCell id="HHeidzKz2zjaD0ulcohX-25" value="связаться с нами" style="html=1;whiteSpace=wrap;fillColor=#d5e8d4;strokeColor=#82b366;" vertex="1" parent="1">
          <mxGeometry x="50" y="1000" width="110" height="50" as="geometry" />
        </mxCell>
        <mxCell id="HHeidzKz2zjaD0ulcohX-26" value="" style="html=1;verticalAlign=bottom;endArrow=block;curved=0;rounded=0;" edge="1" parent="1">
          <mxGeometry width="80" relative="1" as="geometry">
            <mxPoint x="160" y="1024.76" as="sourcePoint" />
            <mxPoint x="240" y="1024.76" as="targetPoint" />
          </mxGeometry>
        </mxCell>
        <mxCell id="HHeidzKz2zjaD0ulcohX-27" value="страница контактов" style="html=1;whiteSpace=wrap;fillColor=#fad9d5;strokeColor=#ae4132;" vertex="1" parent="1">
          <mxGeometry x="240" y="1000" width="110" height="50" as="geometry" />
        </mxCell>
        <mxCell id="HHeidzKz2zjaD0ulcohX-29" value="каталог&amp;nbsp;" style="html=1;whiteSpace=wrap;fillColor=#d5e8d4;strokeColor=#82b366;" vertex="1" parent="1">
          <mxGeometry x="40" y="1150" width="110" height="50" as="geometry" />
        </mxCell>
        <mxCell id="HHeidzKz2zjaD0ulcohX-30" value="" style="html=1;verticalAlign=bottom;endArrow=block;curved=0;rounded=0;" edge="1" parent="1">
          <mxGeometry width="80" relative="1" as="geometry">
            <mxPoint x="150" y="1174.74" as="sourcePoint" />
            <mxPoint x="230" y="1174.74" as="targetPoint" />
          </mxGeometry>
        </mxCell>
        <mxCell id="HHeidzKz2zjaD0ulcohX-31" value="страница каталога" style="rounded=0;whiteSpace=wrap;html=1;fillColor=#fad9d5;strokeColor=#ae4132;" vertex="1" parent="1">
          <mxGeometry x="230" y="1145" width="120" height="60" as="geometry" />
        </mxCell>
        <mxCell id="HHeidzKz2zjaD0ulcohX-32" value="контакты" style="rounded=0;whiteSpace=wrap;html=1;fillColor=#d5e8d4;strokeColor=#82b366;" vertex="1" parent="1">
          <mxGeometry x="45" y="1070" width="120" height="60" as="geometry" />
        </mxCell>
        <mxCell id="HHeidzKz2zjaD0ulcohX-33" value="" style="endArrow=classic;html=1;rounded=0;exitX=1;exitY=0.5;exitDx=0;exitDy=0;entryX=0.5;entryY=1;entryDx=0;entryDy=0;" edge="1" parent="1" source="HHeidzKz2zjaD0ulcohX-32" target="HHeidzKz2zjaD0ulcohX-27">
          <mxGeometry width="50" height="50" relative="1" as="geometry">
            <mxPoint x="260" y="1130" as="sourcePoint" />
            <mxPoint x="310" y="1080" as="targetPoint" />
            <Array as="points">
              <mxPoint x="295" y="1100" />
            </Array>
          </mxGeometry>
        </mxCell>
        <mxCell id="HHeidzKz2zjaD0ulcohX-34" value="о нас&amp;nbsp;" style="html=1;whiteSpace=wrap;fillColor=#d5e8d4;strokeColor=#82b366;" vertex="1" parent="1">
          <mxGeometry x="40" y="1230" width="110" height="50" as="geometry" />
        </mxCell>
        <mxCell id="HHeidzKz2zjaD0ulcohX-35" value="" style="html=1;verticalAlign=bottom;endArrow=block;curved=0;rounded=0;" edge="1" parent="1">
          <mxGeometry width="80" relative="1" as="geometry">
            <mxPoint x="150" y="1254.74" as="sourcePoint" />
            <mxPoint x="230" y="1254.74" as="targetPoint" />
          </mxGeometry>
        </mxCell>
        <mxCell id="HHeidzKz2zjaD0ulcohX-36" value="страница о нас" style="html=1;whiteSpace=wrap;fillColor=#fad9d5;strokeColor=#ae4132;" vertex="1" parent="1">
          <mxGeometry x="230" y="1230" width="110" height="50" as="geometry" />
        </mxCell>
        <mxCell id="HHeidzKz2zjaD0ulcohX-37" value="бренды" style="html=1;whiteSpace=wrap;fillColor=#d5e8d4;strokeColor=#82b366;" vertex="1" parent="1">
          <mxGeometry x="40" y="1320" width="110" height="50" as="geometry" />
        </mxCell>
        <mxCell id="HHeidzKz2zjaD0ulcohX-38" value="" style="html=1;verticalAlign=bottom;endArrow=block;curved=0;rounded=0;" edge="1" parent="1">
          <mxGeometry width="80" relative="1" as="geometry">
            <mxPoint x="150" y="1344.74" as="sourcePoint" />
            <mxPoint x="230" y="1344.74" as="targetPoint" />
          </mxGeometry>
        </mxCell>
        <mxCell id="HHeidzKz2zjaD0ulcohX-39" value="страница брендов" style="html=1;whiteSpace=wrap;fillColor=#fad9d5;strokeColor=#ae4132;" vertex="1" parent="1">
          <mxGeometry x="230" y="1320" width="110" height="50" as="geometry" />
        </mxCell>
        <mxCell id="HHeidzKz2zjaD0ulcohX-42" value="страничка с типами товаров&amp;nbsp;" style="html=1;whiteSpace=wrap;" vertex="1" parent="1">
          <mxGeometry x="240" y="110" width="110" height="50" as="geometry" />
        </mxCell>
        <mxCell id="HHeidzKz2zjaD0ulcohX-43" value="" style="html=1;verticalAlign=bottom;endArrow=block;curved=0;rounded=0;entryX=-0.004;entryY=0.43;entryDx=0;entryDy=0;entryPerimeter=0;" edge="1" parent="1" target="l1aC1aMXHmDlCZjRQquN-3">
          <mxGeometry width="80" relative="1" as="geometry">
            <mxPoint x="200" y="130" as="sourcePoint" />
            <mxPoint x="200" y="60" as="targetPoint" />
            <Array as="points">
              <mxPoint x="200" y="62" />
            </Array>
          </mxGeometry>
        </mxCell>
        <mxCell id="HHeidzKz2zjaD0ulcohX-44" value="" style="html=1;verticalAlign=bottom;endArrow=block;curved=0;rounded=0;" edge="1" parent="1">
          <mxGeometry width="80" relative="1" as="geometry">
            <mxPoint x="365" y="64.79" as="sourcePoint" />
            <mxPoint x="445" y="64.79" as="targetPoint" />
          </mxGeometry>
        </mxCell>
        <mxCell id="HHeidzKz2zjaD0ulcohX-45" value="есть ли такое название в базе данных?" style="shape=rhombus;perimeter=rhombusPerimeter;whiteSpace=wrap;html=1;align=center;" vertex="1" parent="1">
          <mxGeometry x="440" y="35" width="120" height="60" as="geometry" />
        </mxCell>
        <mxCell id="HHeidzKz2zjaD0ulcohX-46" value="ДА" style="html=1;verticalAlign=bottom;endArrow=block;curved=0;rounded=0;" edge="1" parent="1">
          <mxGeometry width="80" relative="1" as="geometry">
            <mxPoint x="500" y="35" as="sourcePoint" />
            <mxPoint x="580" y="35" as="targetPoint" />
          </mxGeometry>
        </mxCell>
        <mxCell id="HHeidzKz2zjaD0ulcohX-47" value="НЕТ" style="html=1;verticalAlign=bottom;endArrow=block;curved=0;rounded=0;" edge="1" parent="1">
          <mxGeometry width="80" relative="1" as="geometry">
            <mxPoint x="500" y="95" as="sourcePoint" />
            <mxPoint x="580" y="95" as="targetPoint" />
          </mxGeometry>
        </mxCell>
        <mxCell id="HHeidzKz2zjaD0ulcohX-48" value="Товар с таким названием не найден" style="html=1;whiteSpace=wrap;" vertex="1" parent="1">
          <mxGeometry x="580" y="70" width="110" height="50" as="geometry" />
        </mxCell>
        <mxCell id="HHeidzKz2zjaD0ulcohX-49" value="выдать товары с таким названием&amp;nbsp;" style="html=1;whiteSpace=wrap;" vertex="1" parent="1">
          <mxGeometry x="580" y="10" width="110" height="50" as="geometry" />
        </mxCell>
        <mxCell id="HHeidzKz2zjaD0ulcohX-50" value="" style="html=1;verticalAlign=bottom;endArrow=block;curved=0;rounded=0;" edge="1" parent="1">
          <mxGeometry width="80" relative="1" as="geometry">
            <mxPoint x="350" y="140" as="sourcePoint" />
            <mxPoint x="430" y="140" as="targetPoint" />
          </mxGeometry>
        </mxCell>
        <mxCell id="HHeidzKz2zjaD0ulcohX-51" value="переход на страничку типа товаров" style="html=1;whiteSpace=wrap;" vertex="1" parent="1">
          <mxGeometry x="430" y="120" width="110" height="50" as="geometry" />
        </mxCell>
      </root>
    </mxGraphModel>
  </diagram>
</mxfile>
